<?xml version="1.0" encoding="UTF-8"?> <svg xmlns="http://www.w3.org/2000/svg" width="572" height="84" viewBox="0 0 572 84" fill="none"> <path d="M66.36 67.68H30.84L24.24 84H0L37.08 0H60.48L97.68 84H72.96L66.36 67.68ZM59.4 50.16L48.6 23.28L37.8 50.16H59.4Z" fill="#333333"></path> <path d="M188.426 0V84H164.666V51.24H132.266V84H108.506V0H132.266V31.56H164.666V0H188.426Z" fill="#333333"></path> <path d="M297.681 65.16V84H275.961H222.201H200.361V65.16H203.361C208.321 65.08 211.801 61.68 213.801 54.96C215.881 48.24 217.161 38.56 217.641 25.92L218.601 0H286.281V65.16H297.681ZM238.401 27.96C238.081 36.92 237.361 44.52 236.241 50.76C235.121 57 233.401 61.8 231.081 65.16H262.881V18.84H238.761L238.401 27.96Z" fill="#333333"></path> <path d="M369.14 67.68H333.62L327.02 84H302.78L339.86 0H363.26L400.46 84H375.74L369.14 67.68ZM362.18 50.16L351.38 23.28L340.58 50.16H362.18Z" fill="#333333"></path> <path d="M474.747 18.84H449.067V84H425.667V18.84H399.867V0H474.747V18.84Z" fill="#333333"></path> <path d="M540.641 67.68H505.121L498.521 84H474.281L511.361 0H534.761L571.961 84H547.241L540.641 67.68ZM533.681 50.16L522.881 23.28L512.081 50.16H533.681Z" fill="#333333"></path> </svg> 